<svg xmlns="http://www.w3.org/2000/svg" viewBox="-10 -10 960 490" font-family="system-ui, -apple-system, 'Segoe UI', sans-serif">
  <rect x="-10" y="-10" width="960" height="490" rx="12" fill="#ffffff"/>
  <defs>
    <marker id="arr" viewBox="0 0 10 10" refX="9" refY="5" markerWidth="7" markerHeight="5" orient="auto-start-reverse">
      <path d="M0 0L10 5L0 10z" fill="#1e1e1e"/>
    </marker>
    <marker id="arr-g" viewBox="0 0 10 10" refX="9" refY="5" markerWidth="7" markerHeight="5" orient="auto">
      <path d="M0 0L10 5L0 10z" fill="#22c55e"/>
    </marker>
    <marker id="arr-r" viewBox="0 0 10 10" refX="9" refY="5" markerWidth="7" markerHeight="5" orient="auto">
      <path d="M0 0L10 5L0 10z" fill="#ef4444"/>
    </marker>
  </defs>

  <!-- Title -->
  <text x="470" y="18" text-anchor="middle" font-size="22" font-weight="700" fill="#1e1e1e">RAG Pipeline — Per-Agent Flow</text>

  <!-- Retry label -->
  <text x="580" y="40" text-anchor="middle" font-size="12" font-weight="600" fill="#ef4444">retry (max 2)</text>
  <!-- Retry loop (dashed, from right of Self-Reflect back to User Query area) -->
  <path d="M885 278 L920 278 L920 46 L85 46 L85 72" fill="none" stroke="#ef4444" stroke-width="2" stroke-dasharray="6 4" marker-end="url(#arr-r)"/>

  <!-- ===== ROW 1: PARALLEL STEP ===== -->

  <!-- User Query -->
  <rect x="20" y="74" width="130" height="48" rx="6" fill="#a5d8ff" stroke="#4a9eed" stroke-width="1.5"/>
  <text x="85" y="103" text-anchor="middle" font-size="14" font-weight="600" fill="#1e1e1e">User Query</text>

  <!-- Parallel zone background -->
  <rect x="175" y="58" width="420" height="120" rx="10" fill="#f3f0ff" fill-opacity="0.5" stroke="#8b5cf6" stroke-width="1" stroke-dasharray="4 3"/>
  <text x="385" y="74" text-anchor="middle" font-size="11" font-weight="600" fill="#8b5cf6">parallel (asyncio.gather)</text>

  <!-- 3 parallel arrows from User Query -->
  <line x1="150" y1="90" x2="188" y2="90" stroke="#1e1e1e" stroke-width="1.5" marker-end="url(#arr)"/>
  <line x1="150" y1="98" x2="188" y2="118" stroke="#1e1e1e" stroke-width="1.5" marker-end="url(#arr)"/>
  <line x1="150" y1="106" x2="188" y2="148" stroke="#1e1e1e" stroke-width="1.5" marker-end="url(#arr)"/>

  <!-- HyDE (top) -->
  <rect x="190" y="78" width="105" height="34" rx="6" fill="#d0bfff" stroke="#8b5cf6" stroke-width="1.5"/>
  <text x="243" y="100" text-anchor="middle" font-size="13" font-weight="600" fill="#1e1e1e">HyDE</text>

  <!-- Arrow from HyDE to Hybrid Search -->
  <line x1="295" y1="95" x2="333" y2="95" stroke="#1e1e1e" stroke-width="1.5" marker-end="url(#arr)"/>

  <!-- Hybrid Search (top-right) -->
  <rect x="335" y="78" width="155" height="34" rx="6" fill="#a5d8ff" stroke="#4a9eed" stroke-width="1.5"/>
  <text x="413" y="100" text-anchor="middle" font-size="13" font-weight="600" fill="#1e1e1e">Hybrid Search</text>
  <text x="413" y="124" text-anchor="middle" font-size="10" fill="#757575">Dense + Sparse + RRF</text>

  <!-- Direct Hybrid Search (middle) — on original query -->
  <rect x="190" y="118" width="155" height="34" rx="6" fill="#a5d8ff" stroke="#4a9eed" stroke-width="1.5"/>
  <text x="268" y="140" text-anchor="middle" font-size="13" font-weight="600" fill="#1e1e1e">Hybrid Search</text>
  <text x="268" y="161" text-anchor="middle" font-size="10" fill="#757575">original query</text>

  <!-- Deep Search (bottom) -->
  <rect x="370" y="138" width="155" height="34" rx="6" fill="#ffd8a8" stroke="#f59e0b" stroke-width="1.5"/>
  <text x="448" y="160" text-anchor="middle" font-size="13" font-weight="600" fill="#1e1e1e">Deep Search</text>
  <text x="448" y="181" text-anchor="middle" font-size="10" fill="#757575">PubMed E-utilities</text>

  <!-- Merge arrows to Graph Search -->
  <line x1="490" y1="95" x2="610" y2="105" stroke="#1e1e1e" stroke-width="1.5" marker-end="url(#arr)"/>
  <line x1="345" y1="135" x2="610" y2="110" stroke="#1e1e1e" stroke-width="1.5" marker-end="url(#arr)"/>
  <line x1="525" y1="155" x2="610" y2="115" stroke="#1e1e1e" stroke-width="1.5" marker-end="url(#arr)"/>

  <!-- Graph Search -->
  <rect x="612" y="86" width="145" height="48" rx="6" fill="#c3fae8" stroke="#06b6d4" stroke-width="1.5"/>
  <text x="685" y="115" text-anchor="middle" font-size="14" font-weight="600" fill="#1e1e1e">Graph Search</text>
  <text x="685" y="148" text-anchor="middle" font-size="11" fill="#757575">PrimeKG</text>

  <!-- Connector: Row 1 → Row 2 -->
  <path d="M685 134 L685 192 L105 192 L105 250" fill="none" stroke="#1e1e1e" stroke-width="2" marker-end="url(#arr)"/>

  <!-- ===== ROW 2 ===== -->
  <!-- Rerank -->
  <rect x="35" y="254" width="130" height="48" rx="6" fill="#d0bfff" stroke="#8b5cf6" stroke-width="1.5"/>
  <text x="100" y="283" text-anchor="middle" font-size="16" font-weight="600" fill="#1e1e1e">Rerank</text>
  <text x="100" y="316" text-anchor="middle" font-size="11" fill="#757575">MiniLM (async)</text>

  <line x1="165" y1="278" x2="198" y2="278" stroke="#1e1e1e" stroke-width="2" marker-end="url(#arr)"/>

  <!-- CRAG Gate -->
  <rect x="200" y="254" width="140" height="48" rx="6" fill="#ffc9c9" stroke="#ef4444" stroke-width="1.5"/>
  <text x="270" y="283" text-anchor="middle" font-size="16" font-weight="600" fill="#1e1e1e">CRAG Gate</text>
  <text x="270" y="316" text-anchor="middle" font-size="11" fill="#757575">sigmoid > 0.60</text>

  <line x1="340" y1="278" x2="373" y2="278" stroke="#1e1e1e" stroke-width="2" marker-end="url(#arr)"/>

  <!-- Assembly -->
  <rect x="375" y="254" width="150" height="48" rx="6" fill="#c3fae8" stroke="#06b6d4" stroke-width="1.5"/>
  <text x="450" y="283" text-anchor="middle" font-size="16" font-weight="600" fill="#1e1e1e">Assembly</text>
  <text x="450" y="316" text-anchor="middle" font-size="11" fill="#757575">dedup + lost-in-middle</text>

  <line x1="525" y1="278" x2="558" y2="278" stroke="#1e1e1e" stroke-width="2" marker-end="url(#arr)"/>

  <!-- Generate -->
  <rect x="560" y="254" width="130" height="48" rx="6" fill="#fff3bf" stroke="#f59e0b" stroke-width="1.5"/>
  <text x="625" y="283" text-anchor="middle" font-size="16" font-weight="600" fill="#1e1e1e">Generate</text>
  <text x="625" y="316" text-anchor="middle" font-size="11" fill="#757575">selected LLM</text>

  <line x1="690" y1="278" x2="728" y2="278" stroke="#1e1e1e" stroke-width="2" marker-end="url(#arr)"/>

  <!-- Self-Reflect -->
  <rect x="730" y="254" width="155" height="48" rx="6" fill="#eebefa" stroke="#8b5cf6" stroke-width="1.5"/>
  <text x="808" y="283" text-anchor="middle" font-size="16" font-weight="600" fill="#1e1e1e">Self-Reflect</text>
  <text x="808" y="316" text-anchor="middle" font-size="11" fill="#757575">faithful? complete?</text>

  <!-- Pass → Output -->
  <line x1="808" y1="302" x2="808" y2="350" stroke="#22c55e" stroke-width="2" marker-end="url(#arr-g)"/>
  <text x="828" y="332" font-size="12" font-weight="600" fill="#22c55e">pass</text>
  <rect x="755" y="354" width="115" height="42" rx="6" fill="#b2f2bb" stroke="#22c55e" stroke-width="1.5"/>
  <text x="813" y="380" text-anchor="middle" font-size="16" font-weight="700" fill="#15803d">Output</text>
</svg>
